<?xml version="1.0" encoding="UTF-8" standalone="no"?>
<!-- Created with Inkscape (http://www.inkscape.org/) -->

<svg
   width="636.62903mm"
   height="232.521mm"
   viewBox="0 0 636.62943 232.52113"
   version="1.1"
   id="svg1"
   xml:space="preserve"
   inkscape:version="1.3 (0e150ed6c4, 2023-07-21)"
   sodipodi:docname="fulllogo.svg"
   xmlns:inkscape="http://www.inkscape.org/namespaces/inkscape"
   xmlns:sodipodi="http://sodipodi.sourceforge.net/DTD/sodipodi-0.dtd"
   xmlns="http://www.w3.org/2000/svg"
   xmlns:svg="http://www.w3.org/2000/svg"><sodipodi:namedview
     id="namedview1"
     pagecolor="#ffffff"
     bordercolor="#666666"
     borderopacity="1.0"
     inkscape:showpageshadow="2"
     inkscape:pageopacity="0.0"
     inkscape:pagecheckerboard="0"
     inkscape:deskcolor="#d1d1d1"
     inkscape:document-units="mm"
     inkscape:zoom="0.41525943"
     inkscape:cx="1211.291"
     inkscape:cy="484.03476"
     inkscape:window-width="1920"
     inkscape:window-height="1016"
     inkscape:window-x="0"
     inkscape:window-y="27"
     inkscape:window-maximized="1"
     inkscape:current-layer="layer1" /><defs
     id="defs1"><rect
       x="737.88147"
       y="266.42914"
       width="822.85059"
       height="209.13988"
       id="rect26" /><inkscape:path-effect
       effect="bspline"
       id="path-effect20"
       is_visible="true"
       weight="42"
       steps="10"
       helper_size="0"
       apply_no_weight="true"
       apply_with_weight="true"
       only_selected="true"
       lpeversion="0"
       uniform="false" /><inkscape:path-effect
       effect="bspline"
       id="path-effect18"
       is_visible="true"
       weight="42"
       steps="10"
       helper_size="0"
       apply_no_weight="true"
       apply_with_weight="true"
       only_selected="true"
       lpeversion="0"
       uniform="false" /><inkscape:path-effect
       effect="bspline"
       id="path-effect16"
       is_visible="true"
       weight="42"
       steps="10"
       helper_size="0"
       apply_no_weight="true"
       apply_with_weight="true"
       only_selected="true"
       lpeversion="0"
       uniform="false" /><inkscape:path-effect
       effect="bspline"
       id="path-effect14"
       is_visible="true"
       weight="42"
       steps="10"
       helper_size="0"
       apply_no_weight="true"
       apply_with_weight="true"
       only_selected="true"
       lpeversion="0"
       uniform="false" /><inkscape:path-effect
       effect="bspline"
       id="path-effect10"
       is_visible="true"
       weight="42"
       steps="10"
       helper_size="0"
       apply_no_weight="true"
       apply_with_weight="true"
       only_selected="true"
       lpeversion="0"
       uniform="false" /><inkscape:path-effect
       effect="bspline"
       id="path-effect8"
       is_visible="true"
       weight="42"
       steps="10"
       helper_size="0"
       apply_no_weight="true"
       apply_with_weight="true"
       only_selected="true"
       lpeversion="0"
       uniform="false" /><inkscape:path-effect
       effect="bspline"
       id="path-effect6"
       is_visible="true"
       weight="42"
       steps="10"
       helper_size="0"
       apply_no_weight="true"
       apply_with_weight="true"
       only_selected="true"
       lpeversion="0"
       uniform="false" /><inkscape:path-effect
       effect="bspline"
       id="path-effect4"
       is_visible="true"
       weight="42"
       steps="10"
       helper_size="0"
       apply_no_weight="true"
       apply_with_weight="true"
       only_selected="true"
       lpeversion="0"
       uniform="false" /><inkscape:path-effect
       effect="bspline"
       id="path-effect2"
       is_visible="true"
       weight="42"
       steps="10"
       helper_size="0"
       apply_no_weight="true"
       apply_with_weight="true"
       only_selected="true"
       lpeversion="0"
       uniform="false" /><inkscape:path-effect
       effect="bspline"
       id="path-effect1004"
       is_visible="true"
       weight="42"
       steps="10"
       helper_size="0"
       apply_no_weight="true"
       apply_with_weight="true"
       only_selected="true"
       lpeversion="0"
       uniform="false" /></defs><g
     inkscape:label="Layer 1"
     inkscape:groupmode="layer"
     id="layer1"
     transform="translate(-13.34463,-11.104693)"><path
       style="fill:none;fill-opacity:1;fill-rule:nonzero;stroke:#1a1a1a;stroke-width:57.3204;stroke-linecap:butt;stroke-linejoin:miter;stroke-miterlimit:98;stroke-dasharray:none;stroke-dashoffset:40;stroke-opacity:1;paint-order:normal"
       d="M 61.0005,61.0005 C 97.001,25 155.501,25 250.001,25 c 94.5,0 153,0 188.9995,36.0005 C 475,97.001 475,155.501 475,250.001 c 0,94.5 0,153 -35.9995,188.9995 C 403.001,475 344.501,475 250.001,475 c -94.5,0 -153,0 -189.0005,-35.9995 C 25,403.001 25,344.501 25,250.001 c 0,-94.5 0,-153 36.0005,-189.0005 z"
       id="path10"
       inkscape:connector-curvature="0"
       inkscape:path-effect="#path-effect14"
       inkscape:original-d="m 25,25 c 72.001,0.001 130.501,0.001 225,0 94.501,0.001 153.001,0.001 225,0 10e-4,72.001 10e-4,130.501 0,225 10e-4,94.501 10e-4,153.001 0,225 -71.999,10e-4 -130.499,10e-4 -225,0 -94.499,10e-4 -152.999,10e-4 -225,0 0.001,-71.999 0.001,-130.499 0,-225 0.001,-94.499 0.001,-152.999 0,-225 z"
       sodipodi:nodetypes="ccccccccc"
       transform="matrix(0.15785332,0,0,0.15785332,77.728612,83.509105)"
       inkscape:export-filename="../../Downloads/tiffimageslogo.png"
       inkscape:export-xdpi="300"
       inkscape:export-ydpi="300" /><path
       style="fill:none;fill-opacity:1;fill-rule:nonzero;stroke:#1a1a1a;stroke-width:57.3204;stroke-linecap:butt;stroke-linejoin:miter;stroke-miterlimit:98;stroke-dasharray:none;stroke-dashoffset:40;stroke-opacity:1;paint-order:normal"
       d="M 61.0005,61.0005 C 97.001,25 155.501,25 250.001,25 c 94.5,0 153,0 188.9995,36.0005 C 475,97.001 475,155.501 475,250.001 c 0,94.5 0,153 -35.9995,188.9995 C 403.001,475 344.501,475 250.001,475 c -94.5,0 -153,0 -189.0005,-35.9995 C 25,403.001 25,344.501 25,250.001 c 0,-94.5 0,-153 36.0005,-189.0005 z"
       id="path11"
       inkscape:connector-curvature="0"
       inkscape:path-effect="#path-effect16"
       inkscape:original-d="m 25,25 c 72.001,0.001 130.501,0.001 225,0 94.501,0.001 153.001,0.001 225,0 10e-4,72.001 10e-4,130.501 0,225 10e-4,94.501 10e-4,153.001 0,225 -71.999,10e-4 -130.499,10e-4 -225,0 -94.499,10e-4 -152.999,10e-4 -225,0 0.001,-71.999 0.001,-130.499 0,-225 0.001,-94.499 0.001,-152.999 0,-225 z"
       sodipodi:nodetypes="ccccccccc"
       transform="matrix(0.15785332,0,0,0.15785332,37.391049,34.825036)" /><path
       style="fill:none;fill-opacity:1;fill-rule:nonzero;stroke:#1a1a1a;stroke-width:57.3204;stroke-linecap:butt;stroke-linejoin:miter;stroke-miterlimit:98;stroke-dasharray:none;stroke-dashoffset:40;stroke-opacity:1;paint-order:normal"
       d="M 61.0005,61.0005 C 97.001,25 155.501,25 250.001,25 c 94.5,0 153,0 188.9995,36.0005 C 475,97.001 475,155.501 475,250.001 c 0,94.5 0,153 -35.9995,188.9995 C 403.001,475 344.501,475 250.001,475 c -94.5,0 -153,0 -189.0005,-35.9995 C 25,403.001 25,344.501 25,250.001 c 0,-94.5 0,-153 36.0005,-189.0005 z"
       id="path12"
       inkscape:connector-curvature="0"
       inkscape:path-effect="#path-effect18"
       inkscape:original-d="m 25,25 c 72.001,0.001 130.501,0.001 225,0 94.501,0.001 153.001,0.001 225,0 10e-4,72.001 10e-4,130.501 0,225 10e-4,94.501 10e-4,153.001 0,225 -71.999,10e-4 -130.499,10e-4 -225,0 -94.499,10e-4 -152.999,10e-4 -225,0 0.001,-71.999 0.001,-130.499 0,-225 0.001,-94.499 0.001,-152.999 0,-225 z"
       sodipodi:nodetypes="ccccccccc"
       transform="matrix(0.15785332,0,0,0.15785332,124.92505,57.638086)" /><path
       style="fill:none;fill-opacity:1;fill-rule:nonzero;stroke:#1a1a1a;stroke-width:57.3204;stroke-linecap:butt;stroke-linejoin:miter;stroke-miterlimit:98;stroke-dasharray:none;stroke-dashoffset:40;stroke-opacity:1;paint-order:normal"
       d="M 61.0005,61.0005 C 97.001,25 155.501,25 250.001,25 c 94.5,0 153,0 188.9995,36.0005 C 475,97.001 475,155.501 475,250.001 c 0,94.5 0,153 -35.9995,188.9995 C 403.001,475 344.501,475 250.001,475 c -94.5,0 -153,0 -189.0005,-35.9995 C 25,403.001 25,344.501 25,250.001 c 0,-94.5 0,-153 36.0005,-189.0005 z"
       id="path13"
       inkscape:connector-curvature="0"
       inkscape:path-effect="#path-effect20"
       inkscape:original-d="m 25,25 c 72.001,0.001 130.501,0.001 225,0 94.501,0.001 153.001,0.001 225,0 10e-4,72.001 10e-4,130.501 0,225 10e-4,94.501 10e-4,153.001 0,225 -71.999,10e-4 -130.499,10e-4 -225,0 -94.499,10e-4 -152.999,10e-4 -225,0 0.001,-71.999 0.001,-130.499 0,-225 0.001,-94.499 0.001,-152.999 0,-225 z"
       sodipodi:nodetypes="ccccccccc"
       transform="matrix(0.15785332,0,0,0.15785332,56.373986,125.18456)" /><path
       style="fill:none;fill-opacity:1;fill-rule:nonzero;stroke:#389826;stroke-width:57.3204;stroke-linecap:butt;stroke-linejoin:miter;stroke-miterlimit:98;stroke-dasharray:none;stroke-dashoffset:40;stroke-opacity:1;paint-order:normal"
       d="M 61.0005,61.0005 C 97.001,25 155.501,25 250.001,25 c 94.5,0 153,0 188.9995,36.0005 C 475,97.001 475,155.501 475,250.001 c 0,94.5 0,153 -35.9995,188.9995 C 403.001,475 344.501,475 250.001,475 c -94.5,0 -153,0 -189.0005,-35.9995 C 25,403.001 25,344.501 25,250.001 c 0,-94.5 0,-153 36.0005,-189.0005 z"
       id="path1002"
       inkscape:connector-curvature="0"
       inkscape:path-effect="#path-effect1004"
       inkscape:original-d="m 25,25 c 72.001,0.001 130.501,0.001 225,0 94.501,0.001 153.001,0.001 225,0 10e-4,72.001 10e-4,130.501 0,225 10e-4,94.501 10e-4,153.001 0,225 -71.999,10e-4 -130.499,10e-4 -225,0 -94.499,10e-4 -152.999,10e-4 -225,0 0.001,-71.999 0.001,-130.499 0,-225 0.001,-94.499 0.001,-152.999 0,-225 z"
       sodipodi:nodetypes="ccccccccc"
       transform="matrix(0.15785332,0,0,0.15785332,77.728612,83.509105)"
       inkscape:export-filename="../../Downloads/tiffimageslogo.png"
       inkscape:export-xdpi="300"
       inkscape:export-ydpi="300" /><path
       style="fill:none;fill-opacity:1;fill-rule:nonzero;stroke:#cb3c33;stroke-width:57.3204;stroke-linecap:butt;stroke-linejoin:miter;stroke-miterlimit:98;stroke-dasharray:none;stroke-dashoffset:40;stroke-opacity:1;paint-order:normal"
       d="M 61.0005,61.0005 C 97.001,25 155.501,25 250.001,25 c 94.5,0 153,0 188.9995,36.0005 C 475,97.001 475,155.501 475,250.001 c 0,94.5 0,153 -35.9995,188.9995 C 403.001,475 344.501,475 250.001,475 c -94.5,0 -153,0 -189.0005,-35.9995 C 25,403.001 25,344.501 25,250.001 c 0,-94.5 0,-153 36.0005,-189.0005 z"
       id="path4"
       inkscape:connector-curvature="0"
       inkscape:path-effect="#path-effect6"
       inkscape:original-d="m 25,25 c 72.001,0.001 130.501,0.001 225,0 94.501,0.001 153.001,0.001 225,0 10e-4,72.001 10e-4,130.501 0,225 10e-4,94.501 10e-4,153.001 0,225 -71.999,10e-4 -130.499,10e-4 -225,0 -94.499,10e-4 -152.999,10e-4 -225,0 0.001,-71.999 0.001,-130.499 0,-225 0.001,-94.499 0.001,-152.999 0,-225 z"
       sodipodi:nodetypes="ccccccccc"
       transform="matrix(0.15785332,0,0,0.15785332,37.391049,34.825036)" /><path
       style="fill:none;fill-opacity:1;fill-rule:nonzero;stroke:#4063d8;stroke-width:57.3204;stroke-linecap:butt;stroke-linejoin:miter;stroke-miterlimit:98;stroke-dasharray:none;stroke-dashoffset:40;stroke-opacity:1;paint-order:normal"
       d="M 61.0005,61.0005 C 97.001,25 155.501,25 250.001,25 c 94.5,0 153,0 188.9995,36.0005 C 475,97.001 475,155.501 475,250.001 c 0,94.5 0,153 -35.9995,188.9995 C 403.001,475 344.501,475 250.001,475 c -94.5,0 -153,0 -189.0005,-35.9995 C 25,403.001 25,344.501 25,250.001 c 0,-94.5 0,-153 36.0005,-189.0005 z"
       id="path6"
       inkscape:connector-curvature="0"
       inkscape:path-effect="#path-effect8"
       inkscape:original-d="m 25,25 c 72.001,0.001 130.501,0.001 225,0 94.501,0.001 153.001,0.001 225,0 10e-4,72.001 10e-4,130.501 0,225 10e-4,94.501 10e-4,153.001 0,225 -71.999,10e-4 -130.499,10e-4 -225,0 -94.499,10e-4 -152.999,10e-4 -225,0 0.001,-71.999 0.001,-130.499 0,-225 0.001,-94.499 0.001,-152.999 0,-225 z"
       sodipodi:nodetypes="ccccccccc"
       transform="matrix(0.15785332,0,0,0.15785332,124.92505,57.638086)" /><path
       style="fill:none;fill-opacity:1;fill-rule:nonzero;stroke:#9558b7;stroke-width:57.3204;stroke-linecap:butt;stroke-linejoin:miter;stroke-miterlimit:98;stroke-dasharray:none;stroke-dashoffset:40;stroke-opacity:1;paint-order:normal"
       d="M 61.0005,61.0005 C 97.001,25 155.501,25 250.001,25 c 94.5,0 153,0 188.9995,36.0005 C 475,97.001 475,155.501 475,250.001 c 0,94.5 0,153 -35.9995,188.9995 C 403.001,475 344.501,475 250.001,475 c -94.5,0 -153,0 -189.0005,-35.9995 C 25,403.001 25,344.501 25,250.001 c 0,-94.5 0,-153 36.0005,-189.0005 z"
       id="path8"
       inkscape:connector-curvature="0"
       inkscape:path-effect="#path-effect10"
       inkscape:original-d="m 25,25 c 72.001,0.001 130.501,0.001 225,0 94.501,0.001 153.001,0.001 225,0 10e-4,72.001 10e-4,130.501 0,225 10e-4,94.501 10e-4,153.001 0,225 -71.999,10e-4 -130.499,10e-4 -225,0 -94.499,10e-4 -152.999,10e-4 -225,0 0.001,-71.999 0.001,-130.499 0,-225 0.001,-94.499 0.001,-152.999 0,-225 z"
       sodipodi:nodetypes="ccccccccc"
       transform="matrix(0.15785332,0,0,0.15785332,56.373986,125.18456)" /><text
       xml:space="preserve"
       transform="matrix(3.2484648,0,0,3.2484648,-2232.2921,-731.37565)"
       id="text26"
       style="font-size:24px;line-height:1.25;font-family:Roboto;-inkscape-font-specification:'Roboto, Normal';font-variant-ligatures:none;white-space:pre;shape-inside:url(#rect26);fill:#000000;stroke:#f2f2f2;stroke-width:0.15391886;stroke-dasharray:none"><tspan
         x="737.88086"
         y="288.49818"
         id="tspan4"><tspan
           style="font-weight:bold;-inkscape-font-specification:'Roboto Bold'"
           id="tspan3">TiffImages.jl</tspan></tspan></text></g></svg>
