<?xml version="1.0" encoding="UTF-8" standalone="no"?>
<!-- Created with Inkscape (http://www.inkscape.org/) -->

<svg
   width="636.62903mm"
   height="232.521mm"
   viewBox="0 0 636.62943 232.52113"
   version="1.1"
   id="svg1"
   xml:space="preserve"
   inkscape:version="1.3 (0e150ed6c4, 2023-07-21)"
   sodipodi:docname="fulllogo.svg"
   xmlns:inkscape="http://www.inkscape.org/namespaces/inkscape"
   xmlns:sodipodi="http://sodipodi.sourceforge.net/DTD/sodipodi-0.dtd"
   xmlns="http://www.w3.org/2000/svg"
   xmlns:svg="http://www.w3.org/2000/svg"><sodipodi:namedview
     id="namedview1"
     pagecolor="#ffffff"
     bordercolor="#666666"
     borderopacity="1.0"
     inkscape:showpageshadow="2"
     inkscape:pageopacity="0.0"
     inkscape:pagecheckerboard="0"
     inkscape:deskcolor="#d1d1d1"
     inkscape:document-units="mm"
     inkscape:zoom="0.41525943"
     inkscape:cx="1485.8181"
     inkscape:cy="864.51979"
     inkscape:window-width="1920"
     inkscape:window-height="1016"
     inkscape:window-x="0"
     inkscape:window-y="27"
     inkscape:window-maximized="1"
     inkscape:current-layer="layer1" /><defs
     id="defs1"><rect
       x="737.88147"
       y="266.42914"
       width="822.85059"
       height="209.13988"
       id="rect26" /><inkscape:path-effect
       effect="bspline"
       id="path-effect20"
       is_visible="true"
       weight="42"
       steps="10"
       helper_size="0"
       apply_no_weight="true"
       apply_with_weight="true"
       only_selected="true"
       lpeversion="0"
       uniform="false" /><inkscape:path-effect
       effect="bspline"
       id="path-effect18"
       is_visible="true"
       weight="42"
       steps="10"
       helper_size="0"
       apply_no_weight="true"
       apply_with_weight="true"
       only_selected="true"
       lpeversion="0"
       uniform="false" /><inkscape:path-effect
       effect="bspline"
       id="path-effect16"
       is_visible="true"
       weight="42"
       steps="10"
       helper_size="0"
       apply_no_weight="true"
       apply_with_weight="true"
       only_selected="true"
       lpeversion="0"
       uniform="false" /><inkscape:path-effect
       effect="bspline"
       id="path-effect14"
       is_visible="true"
       weight="42"
       steps="10"
       helper_size="0"
       apply_no_weight="true"
       apply_with_weight="true"
       only_selected="true"
       lpeversion="0"
       uniform="false" /><inkscape:path-effect
       effect="bspline"
       id="path-effect10"
       is_visible="true"
       weight="42"
       steps="10"
       helper_size="0"
       apply_no_weight="true"
       apply_with_weight="true"
       only_selected="true"
       lpeversion="0"
       uniform="false" /><inkscape:path-effect
       effect="bspline"
       id="path-effect8"
       is_visible="true"
       weight="42"
       steps="10"
       helper_size="0"
       apply_no_weight="true"
       apply_with_weight="true"
       only_selected="true"
       lpeversion="0"
       uniform="false" /><inkscape:path-effect
       effect="bspline"
       id="path-effect6"
       is_visible="true"
       weight="42"
       steps="10"
       helper_size="0"
       apply_no_weight="true"
       apply_with_weight="true"
       only_selected="true"
       lpeversion="0"
       uniform="false" /><inkscape:path-effect
       effect="bspline"
       id="path-effect4"
       is_visible="true"
       weight="42"
       steps="10"
       helper_size="0"
       apply_no_weight="true"
       apply_with_weight="true"
       only_selected="true"
       lpeversion="0"
       uniform="false" /><inkscape:path-effect
       effect="bspline"
       id="path-effect2"
       is_visible="true"
       weight="42"
       steps="10"
       helper_size="0"
       apply_no_weight="true"
       apply_with_weight="true"
       only_selected="true"
       lpeversion="0"
       uniform="false" /><inkscape:path-effect
       effect="bspline"
       id="path-effect1004"
       is_visible="true"
       weight="42"
       steps="10"
       helper_size="0"
       apply_no_weight="true"
       apply_with_weight="true"
       only_selected="true"
       lpeversion="0"
       uniform="false" /></defs><g
     inkscape:label="Layer 1"
     inkscape:groupmode="layer"
     id="layer1"
     transform="translate(-13.34463,-11.104693)"><path
       style="fill:none;fill-opacity:1;fill-rule:nonzero;stroke:#1a1a1a;stroke-width:57.3204;stroke-linecap:butt;stroke-linejoin:miter;stroke-miterlimit:98;stroke-dasharray:none;stroke-dashoffset:40;stroke-opacity:1;paint-order:normal"
       d="M 61.0005,61.0005 C 97.001,25 155.501,25 250.001,25 c 94.5,0 153,0 188.9995,36.0005 C 475,97.001 475,155.501 475,250.001 c 0,94.5 0,153 -35.9995,188.9995 C 403.001,475 344.501,475 250.001,475 c -94.5,0 -153,0 -189.0005,-35.9995 C 25,403.001 25,344.501 25,250.001 c 0,-94.5 0,-153 36.0005,-189.0005 z"
       id="path10"
       inkscape:connector-curvature="0"
       inkscape:path-effect="#path-effect14"
       inkscape:original-d="m 25,25 c 72.001,0.001 130.501,0.001 225,0 94.501,0.001 153.001,0.001 225,0 10e-4,72.001 10e-4,130.501 0,225 10e-4,94.501 10e-4,153.001 0,225 -71.999,10e-4 -130.499,10e-4 -225,0 -94.499,10e-4 -152.999,10e-4 -225,0 0.001,-71.999 0.001,-130.499 0,-225 0.001,-94.499 0.001,-152.999 0,-225 z"
       sodipodi:nodetypes="ccccccccc"
       transform="matrix(0.15785332,0,0,0.15785332,77.728612,83.509105)"
       inkscape:export-filename="../../Downloads/tiffimageslogo.png"
       inkscape:export-xdpi="300"
       inkscape:export-ydpi="300" /><path
       style="fill:none;fill-opacity:1;fill-rule:nonzero;stroke:#1a1a1a;stroke-width:57.3204;stroke-linecap:butt;stroke-linejoin:miter;stroke-miterlimit:98;stroke-dasharray:none;stroke-dashoffset:40;stroke-opacity:1;paint-order:normal"
       d="M 61.0005,61.0005 C 97.001,25 155.501,25 250.001,25 c 94.5,0 153,0 188.9995,36.0005 C 475,97.001 475,155.501 475,250.001 c 0,94.5 0,153 -35.9995,188.9995 C 403.001,475 344.501,475 250.001,475 c -94.5,0 -153,0 -189.0005,-35.9995 C 25,403.001 25,344.501 25,250.001 c 0,-94.5 0,-153 36.0005,-189.0005 z"
       id="path11"
       inkscape:connector-curvature="0"
       inkscape:path-effect="#path-effect16"
       inkscape:original-d="m 25,25 c 72.001,0.001 130.501,0.001 225,0 94.501,0.001 153.001,0.001 225,0 10e-4,72.001 10e-4,130.501 0,225 10e-4,94.501 10e-4,153.001 0,225 -71.999,10e-4 -130.499,10e-4 -225,0 -94.499,10e-4 -152.999,10e-4 -225,0 0.001,-71.999 0.001,-130.499 0,-225 0.001,-94.499 0.001,-152.999 0,-225 z"
       sodipodi:nodetypes="ccccccccc"
       transform="matrix(0.15785332,0,0,0.15785332,37.391049,34.825036)" /><path
       style="fill:none;fill-opacity:1;fill-rule:nonzero;stroke:#1a1a1a;stroke-width:57.3204;stroke-linecap:butt;stroke-linejoin:miter;stroke-miterlimit:98;stroke-dasharray:none;stroke-dashoffset:40;stroke-opacity:1;paint-order:normal"
       d="M 61.0005,61.0005 C 97.001,25 155.501,25 250.001,25 c 94.5,0 153,0 188.9995,36.0005 C 475,97.001 475,155.501 475,250.001 c 0,94.5 0,153 -35.9995,188.9995 C 403.001,475 344.501,475 250.001,475 c -94.5,0 -153,0 -189.0005,-35.9995 C 25,403.001 25,344.501 25,250.001 c 0,-94.5 0,-153 36.0005,-189.0005 z"
       id="path12"
       inkscape:connector-curvature="0"
       inkscape:path-effect="#path-effect18"
       inkscape:original-d="m 25,25 c 72.001,0.001 130.501,0.001 225,0 94.501,0.001 153.001,0.001 225,0 10e-4,72.001 10e-4,130.501 0,225 10e-4,94.501 10e-4,153.001 0,225 -71.999,10e-4 -130.499,10e-4 -225,0 -94.499,10e-4 -152.999,10e-4 -225,0 0.001,-71.999 0.001,-130.499 0,-225 0.001,-94.499 0.001,-152.999 0,-225 z"
       sodipodi:nodetypes="ccccccccc"
       transform="matrix(0.15785332,0,0,0.15785332,124.92505,57.638086)" /><path
       style="fill:none;fill-opacity:1;fill-rule:nonzero;stroke:#1a1a1a;stroke-width:57.3204;stroke-linecap:butt;stroke-linejoin:miter;stroke-miterlimit:98;stroke-dasharray:none;stroke-dashoffset:40;stroke-opacity:1;paint-order:normal"
       d="M 61.0005,61.0005 C 97.001,25 155.501,25 250.001,25 c 94.5,0 153,0 188.9995,36.0005 C 475,97.001 475,155.501 475,250.001 c 0,94.5 0,153 -35.9995,188.9995 C 403.001,475 344.501,475 250.001,475 c -94.5,0 -153,0 -189.0005,-35.9995 C 25,403.001 25,344.501 25,250.001 c 0,-94.5 0,-153 36.0005,-189.0005 z"
       id="path13"
       inkscape:connector-curvature="0"
       inkscape:path-effect="#path-effect20"
       inkscape:original-d="m 25,25 c 72.001,0.001 130.501,0.001 225,0 94.501,0.001 153.001,0.001 225,0 10e-4,72.001 10e-4,130.501 0,225 10e-4,94.501 10e-4,153.001 0,225 -71.999,10e-4 -130.499,10e-4 -225,0 -94.499,10e-4 -152.999,10e-4 -225,0 0.001,-71.999 0.001,-130.499 0,-225 0.001,-94.499 0.001,-152.999 0,-225 z"
       sodipodi:nodetypes="ccccccccc"
       transform="matrix(0.15785332,0,0,0.15785332,56.373986,125.18456)" /><path
       style="fill:none;fill-opacity:1;fill-rule:nonzero;stroke:#389826;stroke-width:57.3204;stroke-linecap:butt;stroke-linejoin:miter;stroke-miterlimit:98;stroke-dasharray:none;stroke-dashoffset:40;stroke-opacity:1;paint-order:normal"
       d="M 61.0005,61.0005 C 97.001,25 155.501,25 250.001,25 c 94.5,0 153,0 188.9995,36.0005 C 475,97.001 475,155.501 475,250.001 c 0,94.5 0,153 -35.9995,188.9995 C 403.001,475 344.501,475 250.001,475 c -94.5,0 -153,0 -189.0005,-35.9995 C 25,403.001 25,344.501 25,250.001 c 0,-94.5 0,-153 36.0005,-189.0005 z"
       id="path1002"
       inkscape:connector-curvature="0"
       inkscape:path-effect="#path-effect1004"
       inkscape:original-d="m 25,25 c 72.001,0.001 130.501,0.001 225,0 94.501,0.001 153.001,0.001 225,0 10e-4,72.001 10e-4,130.501 0,225 10e-4,94.501 10e-4,153.001 0,225 -71.999,10e-4 -130.499,10e-4 -225,0 -94.499,10e-4 -152.999,10e-4 -225,0 0.001,-71.999 0.001,-130.499 0,-225 0.001,-94.499 0.001,-152.999 0,-225 z"
       sodipodi:nodetypes="ccccccccc"
       transform="matrix(0.15785332,0,0,0.15785332,77.728612,83.509105)"
       inkscape:export-filename="../../Downloads/tiffimageslogo.png"
       inkscape:export-xdpi="300"
       inkscape:export-ydpi="300" /><path
       style="fill:none;fill-opacity:1;fill-rule:nonzero;stroke:#cb3c33;stroke-width:57.3204;stroke-linecap:butt;stroke-linejoin:miter;stroke-miterlimit:98;stroke-dasharray:none;stroke-dashoffset:40;stroke-opacity:1;paint-order:normal"
       d="M 61.0005,61.0005 C 97.001,25 155.501,25 250.001,25 c 94.5,0 153,0 188.9995,36.0005 C 475,97.001 475,155.501 475,250.001 c 0,94.5 0,153 -35.9995,188.9995 C 403.001,475 344.501,475 250.001,475 c -94.5,0 -153,0 -189.0005,-35.9995 C 25,403.001 25,344.501 25,250.001 c 0,-94.5 0,-153 36.0005,-189.0005 z"
       id="path4"
       inkscape:connector-curvature="0"
       inkscape:path-effect="#path-effect6"
       inkscape:original-d="m 25,25 c 72.001,0.001 130.501,0.001 225,0 94.501,0.001 153.001,0.001 225,0 10e-4,72.001 10e-4,130.501 0,225 10e-4,94.501 10e-4,153.001 0,225 -71.999,10e-4 -130.499,10e-4 -225,0 -94.499,10e-4 -152.999,10e-4 -225,0 0.001,-71.999 0.001,-130.499 0,-225 0.001,-94.499 0.001,-152.999 0,-225 z"
       sodipodi:nodetypes="ccccccccc"
       transform="matrix(0.15785332,0,0,0.15785332,37.391049,34.825036)" /><path
       style="fill:none;fill-opacity:1;fill-rule:nonzero;stroke:#4063d8;stroke-width:57.3204;stroke-linecap:butt;stroke-linejoin:miter;stroke-miterlimit:98;stroke-dasharray:none;stroke-dashoffset:40;stroke-opacity:1;paint-order:normal"
       d="M 61.0005,61.0005 C 97.001,25 155.501,25 250.001,25 c 94.5,0 153,0 188.9995,36.0005 C 475,97.001 475,155.501 475,250.001 c 0,94.5 0,153 -35.9995,188.9995 C 403.001,475 344.501,475 250.001,475 c -94.5,0 -153,0 -189.0005,-35.9995 C 25,403.001 25,344.501 25,250.001 c 0,-94.5 0,-153 36.0005,-189.0005 z"
       id="path6"
       inkscape:connector-curvature="0"
       inkscape:path-effect="#path-effect8"
       inkscape:original-d="m 25,25 c 72.001,0.001 130.501,0.001 225,0 94.501,0.001 153.001,0.001 225,0 10e-4,72.001 10e-4,130.501 0,225 10e-4,94.501 10e-4,153.001 0,225 -71.999,10e-4 -130.499,10e-4 -225,0 -94.499,10e-4 -152.999,10e-4 -225,0 0.001,-71.999 0.001,-130.499 0,-225 0.001,-94.499 0.001,-152.999 0,-225 z"
       sodipodi:nodetypes="ccccccccc"
       transform="matrix(0.15785332,0,0,0.15785332,124.92505,57.638086)" /><path
       style="fill:none;fill-opacity:1;fill-rule:nonzero;stroke:#9558b7;stroke-width:57.3204;stroke-linecap:butt;stroke-linejoin:miter;stroke-miterlimit:98;stroke-dasharray:none;stroke-dashoffset:40;stroke-opacity:1;paint-order:normal"
       d="M 61.0005,61.0005 C 97.001,25 155.501,25 250.001,25 c 94.5,0 153,0 188.9995,36.0005 C 475,97.001 475,155.501 475,250.001 c 0,94.5 0,153 -35.9995,188.9995 C 403.001,475 344.501,475 250.001,475 c -94.5,0 -153,0 -189.0005,-35.9995 C 25,403.001 25,344.501 25,250.001 c 0,-94.5 0,-153 36.0005,-189.0005 z"
       id="path8"
       inkscape:connector-curvature="0"
       inkscape:path-effect="#path-effect10"
       inkscape:original-d="m 25,25 c 72.001,0.001 130.501,0.001 225,0 94.501,0.001 153.001,0.001 225,0 10e-4,72.001 10e-4,130.501 0,225 10e-4,94.501 10e-4,153.001 0,225 -71.999,10e-4 -130.499,10e-4 -225,0 -94.499,10e-4 -152.999,10e-4 -225,0 0.001,-71.999 0.001,-130.499 0,-225 0.001,-94.499 0.001,-152.999 0,-225 z"
       sodipodi:nodetypes="ccccccccc"
       transform="matrix(0.15785332,0,0,0.15785332,56.373986,125.18456)" /><path
       style="font-weight:bold;font-size:24px;line-height:1.25;font-family:Roboto;-inkscape-font-specification:'Roboto Bold';font-variant-ligatures:none;white-space:pre;fill:#000000;stroke:none;stroke-width:0.5"
       d="m 160.79856,171.53024 v -9.25052 h 45.11052 v 9.25052 h -16.94026 v 46.17641 h -11.42036 v -46.17641 z m 50.82071,-5.67214 q 0,-2.47442 1.67497,-4.07325 1.675,-1.63694 4.49204,-1.63694 2.817,0 4.49201,1.63694 1.67497,1.59883 1.67497,4.07325 0,2.43634 -1.67497,4.07328 -1.67501,1.59886 -4.49201,1.59886 -2.81704,0 -4.49204,-1.59886 -1.67497,-1.63694 -1.67497,-4.07328 z m 11.72491,10.65902 v 41.18953 H 212.3045 v -41.18953 z m 31.2538,8.03235 h -8.1846 v 33.15718 h -11.03972 v -33.15718 h -6.12894 v -8.03235 h 6.12894 v -3.57838 q 0,-7.04257 4.07329,-10.77324 4.07325,-3.73063 11.03968,-3.73063 2.66478,0 5.63407,0.76134 l -0.11435,8.52722 q -1.44657,-0.34262 -3.38805,-0.34262 -6.09087,0 -6.20505,5.3676 v 3.76871 h 8.1846 z m 27.94187,0 h -8.18461 v 33.15718 h -11.03971 v -33.15718 h -6.12894 v -8.03235 h 6.12894 v -3.57838 q 0,-7.04257 4.07328,-10.77324 4.07325,-3.73063 11.03971,-3.73063 2.66475,0 5.63404,0.76134 l -0.11434,8.52722 q -1.44658,-0.34262 -3.38802,-0.34262 -6.09087,0 -6.20509,5.3676 v 3.76871 h 8.18461 z M 301.117,162.27972 v 55.42693 h -11.42036 v -55.42693 z m 27.6754,22.38397 q -4.56816,0 -6.73803,3.88292 v 29.16004 h -11.03968 v -41.18953 h 10.35448 l 0.38065,4.53008 q 4.30169,-5.29142 11.80109,-5.29142 7.95617,0 10.9255,6.2812 4.22554,-6.2812 12.37207,-6.2812 5.93861,0 9.55507,3.50223 3.61645,3.50227 3.65452,12.02949 v 26.41915 h -11.03971 v -26.26689 q 0,-4.11133 -1.67501,-5.44372 -1.6369,-1.33235 -4.49201,-1.33235 -4.8727,0 -6.81414,4.60619 v 28.43677 H 335.03556 V 191.5159 q 0,-4.07328 -1.67501,-5.44371 -1.67497,-1.4085 -4.56815,-1.4085 z m 73.58536,33.04296 q -0.68523,-1.44658 -1.10399,-3.6926 -3.99714,4.45397 -10.39255,4.45397 -5.90052,0 -9.93573,-3.46419 -4.03521,-3.50227 -4.03521,-8.86984 0,-6.47156 4.79656,-10.01186 4.79658,-3.57838 14.19936,-3.57838 h 4.91077 v -2.39828 q 0,-2.85511 -1.48465,-4.53011 -1.4466,-1.71305 -4.60622,-1.71305 -5.90055,0 -5.90055,4.94884 h -11.00164 q 0,-5.3676 4.75852,-9.21245 4.75848,-3.88292 12.75276,-3.88292 7.11868,0 11.80105,3.61645 4.72041,3.61645 4.72041,10.84935 v 18.34876 q 0.076,5.48178 1.63693,8.48915 v 0.64716 z m -9.09827,-7.65166 q 2.77897,0 4.72044,-1.21818 1.97952,-1.25624 2.81704,-2.74089 v -7.15676 h -4.49204 q -4.3778,0 -6.39542,1.86534 -2.01759,1.82726 -2.01759,4.53008 0,2.05566 1.40851,3.38805 1.4466,1.33236 3.95906,1.33236 z m 43.28326,23.86861 q -3.73063,0 -8.22268,-1.56079 -4.45393,-1.56079 -7.11868,-4.8727 l 4.8727,-6.69995 q 4.07325,4.56815 10.01186,4.56815 4.3778,0 6.81414,-2.36021 2.43635,-2.32216 2.43635,-6.66188 v -2.20795 q -3.88292,4.33975 -10.01186,4.33975 -7.65166,0 -12.1056,-5.86247 -4.45394,-5.86247 -4.53008,-14.69423 v -1.10396 q 0,-9.40278 4.45393,-15.22718 4.49205,-5.8244 12.25789,-5.8244 6.81418,0 10.58288,4.6443 l 0.41876,-3.88296 h 9.9738 v 39.78103 q 0,8.48914 -5.51986,13.0573 -5.48178,4.56815 -14.31355,4.56815 z m -6.85221,-36.31683 q 0,4.94884 2.01759,8.45108 2.05566,3.46419 6.39541,3.46419 5.02499,0 7.2329,-3.80681 v -17.28284 q -2.16984,-3.7687 -7.15675,-3.7687 -4.30169,0 -6.39542,3.5403 -2.09373,3.50224 -2.09373,8.60337 z m 70.19727,13.39992 q -1.97951,2.81703 -6.01472,5.13917 -4.03521,2.32216 -10.04994,2.32216 -9.59311,0 -14.99878,-5.78633 -5.40564,-5.8244 -5.44371,-14.04707 v -1.59886 q 0,-9.32664 5.17724,-15.30333 5.21531,-5.97665 14.04708,-5.97665 8.86983,0 13.51413,5.55793 4.64426,5.55789 4.64426,14.6942 v 4.68237 h -26.22878 q 0.57101,3.99714 3.15962,6.47156 2.58863,2.43635 6.81417,2.43635 6.2812,0 9.93572,-4.60623 z m -17.35898,-26.38108 q -3.50223,0 -5.40564,2.36021 -1.9034,2.3602 -2.47442,6.16701 h 15.30332 v -0.83752 q -0.076,-3.3119 -1.86533,-5.48178 -1.75112,-2.20792 -5.55793,-2.20792 z m 46.74746,21.66067 q 0,-1.75115 -1.63694,-2.93125 -1.59886,-1.21818 -6.92836,-2.36021 -6.35734,-1.37046 -10.43062,-4.26361 -4.07325,-2.89318 -4.07325,-8.1846 0,-5.13917 4.33972,-8.94598 4.37783,-3.84485 12.06756,-3.84485 8.03232,0 12.63854,3.7687 4.60623,3.76874 4.60623,9.517 h -11.00164 q 0,-2.36021 -1.52272,-3.921 -1.52272,-1.56078 -4.75848,-1.56078 -2.74089,0 -4.30168,1.29431 -1.52272,1.25625 -1.52272,3.15966 0,1.75111 1.63693,2.89314 1.6369,1.14203 6.0528,2.01759 6.69996,1.33239 11.11583,4.07328 4.41589,2.7409 4.41589,8.86984 0,5.44371 -4.68237,9.02209 -4.68237,3.57841 -12.63854,3.57841 -8.64143,0 -13.20959,-4.4159 -4.56815,-4.45393 -4.56815,-9.47892 h 10.4687 q 0.15235,3.2358 2.3602,4.6443 2.24599,1.4085 5.17724,1.4085 6.39542,0 6.39542,-4.33972 z m 18.38679,5.97666 q 0,-2.5125 1.67501,-4.18747 1.71305,-1.71308 4.56815,-1.71308 2.85511,0 4.53009,1.71308 1.675,1.67497 1.675,4.18747 0,2.47442 -1.675,4.18746 -1.67498,1.67501 -4.53009,1.67501 -2.8551,0 -4.56815,-1.67501 -1.67501,-1.71304 -1.67501,-4.18746 z m 21.8891,-46.40484 q 0,-2.47442 1.6369,-4.07325 1.67501,-1.63694 4.49201,-1.63694 2.81704,0 4.49205,1.63694 1.67497,1.59883 1.67497,4.07325 0,2.43634 -1.67497,4.07328 -1.67501,1.59886 -4.49205,1.59886 -2.817,0 -4.49201,-1.59886 -1.6369,-1.63694 -1.6369,-4.07328 z m 0.83749,10.65902 h 11.03971 v 43.47362 q 0,6.96643 -3.69259,10.65903 -3.65453,3.69256 -10.31641,3.69256 -2.89318,0 -5.51986,-0.64713 v -8.71758 q 1.75112,0.34262 3.50224,0.34262 4.98691,0 4.98691,-5.3295 z m 31.32992,-17.28284 v 58.47237 h -11.03972 v -58.47237 z"
       id="text26"
       aria-label="TiffImages.jl" /><path
       style="font-weight:bold;font-size:24px;line-height:1.25;font-family:Roboto;-inkscape-font-specification:'Roboto Bold';font-variant-ligatures:none;white-space:pre;fill:#ffffff;stroke:none;stroke-width:0.471675"
       d="m 212.37589,97.72275 v -8.726474 h 42.55497 v 8.726474 h -15.98058 v 43.56049 h -10.7734 V 97.72275 Z m 47.94167,-5.350813 q 0,-2.334243 1.58008,-3.842497 1.58012,-1.5442 4.23757,-1.5442 2.65741,0 4.23753,1.5442 1.58008,1.508254 1.58008,3.842497 0,2.298327 -1.58008,3.842528 -1.58012,1.508285 -4.23753,1.508285 -2.65745,0 -4.23757,-1.508285 -1.58008,-1.544201 -1.58008,-3.842528 z m 11.06068,10.055193 v 38.85611 h -10.41427 v -38.85611 z m 29.48326,7.57731 h -7.72095 v 31.2788 h -10.4143 v -31.2788 h -5.78173 v -7.57731 h 5.78173 v -3.375675 q 0,-6.643602 3.84253,-10.162924 3.84249,-3.519292 10.41427,-3.519292 2.51382,0 5.3149,0.718212 l -0.10787,8.044147 q -1.36463,-0.323206 -3.19611,-0.323206 -5.74582,0 -5.85354,5.063523 v 3.555215 h 7.72095 z m 26.35893,0 h -7.72094 v 31.2788 h -10.41431 v -31.2788 h -5.78173 v -7.57731 h 5.78173 v -3.375675 q 0,-6.643602 3.84254,-10.162924 3.84249,-3.519292 10.4143,-3.519292 2.51379,0 5.31487,0.718212 l -0.10788,8.044147 q -1.36462,-0.323206 -3.19608,-0.323206 -5.74582,0 -5.85356,5.063523 v 3.555215 h 7.72094 z m 17.52475,-21.008164 v 52.286964 h -10.7734 V 88.996276 Z m 26.10756,21.115904 q -4.30936,0 -6.35632,3.66296 v 27.5081 h -10.41427 v -38.85611 h 9.76789 l 0.35909,4.27344 q 4.05799,-4.99166 11.13255,-4.99166 7.50545,0 10.30656,5.92537 3.98616,-5.92537 11.67118,-5.92537 5.60219,0 9.01377,3.30383 3.41157,3.30387 3.44749,11.34801 v 24.92249 h -10.41431 v -24.77885 q 0,-3.87842 -1.58012,-5.13533 -1.54416,-1.25688 -4.23752,-1.25688 -4.59666,0 -6.42812,4.34525 v 26.82581 h -10.37839 v -24.70703 q 0,-3.84252 -1.58011,-5.13532 -1.58009,-1.32871 -4.30937,-1.32871 z m 69.41669,31.17106 q -0.64641,-1.36463 -1.04145,-3.48341 -3.77069,4.20164 -9.8038,4.20164 -5.56624,0 -9.37286,-3.26794 -3.80661,-3.30386 -3.80661,-8.36735 0,-6.10494 4.52482,-9.44469 4.52486,-3.37566 13.39497,-3.37566 h 4.63256 v -2.26241 q 0,-2.69337 -1.40053,-4.27348 -1.36466,-1.616 -4.34529,-1.616 -5.56627,0 -5.56627,4.66848 h -10.37839 q 0,-5.06352 4.48894,-8.69055 4.48891,-3.66296 12.03031,-3.66296 6.71541,0 11.13252,3.41158 4.45298,3.41158 4.45298,10.23473 v 17.30929 q 0.0717,5.17123 1.54421,8.00823 v 0.6105 z m -8.58284,-7.21819 q 2.62153,0 4.45303,-1.14917 1.86738,-1.18508 2.65744,-2.58562 v -6.75132 h -4.23756 q -4.12979,0 -6.03311,1.75966 -1.90329,1.72375 -1.90329,4.27345 0,1.93921 1.32871,3.19612 1.36466,1.25688 3.73478,1.25688 z m 40.83123,22.51643 q -3.51929,0 -7.75686,-1.47237 -4.20162,-1.47237 -6.71541,-4.59665 l 4.59666,-6.32041 q 3.8425,4.30937 9.44469,4.30937 4.12979,0 6.42812,-2.2265 2.29832,-2.19061 2.29832,-6.28448 v -2.08287 q -3.66295,4.0939 -9.44469,4.0939 -7.21818,0 -11.4198,-5.53035 -4.20162,-5.53036 -4.27345,-13.8618 v -1.04141 q 0,-8.87011 4.20162,-14.36455 4.23756,-5.49445 11.56347,-5.49445 6.42814,0 9.98335,4.38119 l 0.39504,-3.66297 h 9.40877 v 37.52739 q 0,8.00823 -5.20716,12.3176 -5.17123,4.30936 -13.50267,4.30936 z m -6.46403,-34.25945 q 0,4.66848 1.90329,7.97232 1.9392,3.26794 6.03311,3.26794 4.74031,0 6.82315,-3.59115 v -16.30375 q -2.04692,-3.55521 -6.75132,-3.55521 -4.05799,0 -6.03311,3.33975 -1.97512,3.30383 -1.97512,8.11598 z m 66.22055,12.6408 q -1.86738,2.65745 -5.67399,4.84804 -3.80662,2.1906 -9.48061,2.1906 -9.04964,0 -14.14908,-5.45853 -5.09941,-5.49444 -5.13532,-13.25129 v -1.50828 q 0,-8.79828 4.88394,-14.43639 4.91987,-5.63807 13.2513,-5.63807 8.36736,0 12.74855,5.24307 4.38117,5.24304 4.38117,13.86177 v 4.41711 h -24.74291 q 0.53867,3.7707 2.98062,6.10494 2.44199,2.29833 6.42815,2.29833 5.92536,0 9.37286,-4.34529 z m -16.37558,-24.88657 q -3.30384,0 -5.09941,2.22651 -1.79558,2.22649 -2.33424,5.81764 h 14.43637 v -0.79007 q -0.0717,-3.12428 -1.75966,-5.17124 -1.65191,-2.08284 -5.24306,-2.08284 z m 44.09917,20.43358 q 0,-1.65195 -1.5442,-2.76519 -1.50828,-1.14917 -6.53586,-2.22651 -5.99719,-1.29282 -9.83973,-4.02207 -3.8425,-2.72928 -3.8425,-7.72093 0,-4.84804 4.09388,-8.43919 4.12982,-3.62704 11.38392,-3.62704 7.57728,0 11.92257,3.55521 4.34527,3.55523 4.34527,8.97785 h -10.37839 q 0,-2.2265 -1.43646,-3.69887 -1.43644,-1.47237 -4.4889,-1.47237 -2.58562,0 -4.05799,1.22099 -1.43646,1.18509 -1.43646,2.98066 0,1.65192 1.54421,2.72925 1.54417,1.07733 5.7099,1.90329 6.3204,1.25691 10.4861,3.84253 4.16574,2.58562 4.16574,8.36735 0,5.13532 -4.41711,8.51098 -4.41711,3.37569 -11.92256,3.37569 -8.15189,0 -12.46126,-4.16573 -4.30937,-4.20161 -4.30937,-8.94193 h 9.87564 q 0.14372,3.05249 2.22651,4.38119 2.11874,1.32871 4.88394,1.32871 6.03311,0 6.03311,-4.09387 z m 17.34517,5.63807 q 0,-2.37016 1.58012,-3.95024 1.616,-1.61603 4.30936,-1.61603 2.69337,0 4.27345,1.61603 1.58012,1.58008 1.58012,3.95024 0,2.33424 -1.58012,3.95024 -1.58008,1.58012 -4.27345,1.58012 -2.69336,0 -4.30936,-1.58012 -1.58012,-1.616 -1.58012,-3.95024 z m 20.64907,-43.775973 q 0,-2.334243 1.54417,-3.842497 1.58011,-1.5442 4.23753,-1.5442 2.65744,0 4.23756,1.5442 1.58008,1.508254 1.58008,3.842497 0,2.298327 -1.58008,3.842528 -1.58012,1.508285 -4.23756,1.508285 -2.65742,0 -4.23753,-1.508285 -1.54417,-1.544201 -1.54417,-3.842528 z m 0.79003,10.055193 h 10.41431 v 41.0108 q 0,6.57178 -3.48341,10.05518 -3.44749,3.48338 -9.73197,3.48338 -2.72928,0 -5.20715,-0.61047 v -8.22372 q 1.65191,0.32321 3.30383,0.32321 4.70439,0 4.70439,-5.02758 z m 29.55506,-16.303763 v 55.159873 h -10.4143 V 86.123367 Z"
       id="path1"
       aria-label="TiffImages.jl" /></g></svg>
